<?xml version="1.0" standalone="no"?>
<!DOCTYPE svg PUBLIC "-//W3C//DTD SVG 20010904//EN"
 "http://www.w3.org/TR/2001/REC-SVG-20010904/DTD/svg10.dtd">
<svg version="1.0" xmlns="http://www.w3.org/2000/svg"
 width="216.000000pt" height="216.000000pt" viewBox="0 0 216.000000 216.000000"
 preserveAspectRatio="xMidYMid meet">
<metadata>
Created by potrace 1.11, written by Peter Selinger 2001-2013
</metadata>
<g transform="translate(0.000000,216.000000) scale(0.100000,-0.100000)"
fill="#000000" stroke="none">
<path d="M765 1690 c-243 -52 -403 -212 -434 -433 -37 -264 148 -459 597 -633
191 -74 362 -90 498 -48 58 19 124 66 124 90 0 8 9 32 20 54 30 59 26 92 -14
128 -24 21 -51 33 -97 41 -61 10 -112 41 -96 58 4 4 74 0 155 -9 93 -11 150
-14 156 -8 6 6 20 10 31 10 32 0 54 30 59 80 2 25 16 77 31 115 51 131 18 254
-95 359 -135 124 -400 204 -700 212 -116 3 -163 0 -235 -16z m180 -44 c6 3 18
-2 25 -11 11 -13 10 -18 -5 -28 -22 -17 -72 -10 -80 11 -7 20 24 47 38 33 5
-5 15 -7 22 -5z m-164 -36 c5 0 9 -12 9 -26 0 -14 -4 -23 -10 -19 -5 3 -10 -3
-10 -14 0 -29 -16 -34 -51 -17 -17 9 -35 14 -39 11 -4 -3 -11 3 -14 12 -8 20
17 43 45 43 10 0 21 5 24 11 4 6 14 8 22 5 8 -3 19 -6 24 -6z m769 -76 c0 -12
-48 -63 -54 -57 -14 14 -4 44 17 53 27 11 37 12 37 4z m-942 -17 c12 -8 17
-59 6 -70 -18 -18 -87 43 -78 68 5 12 54 13 72 2z m962 -33 c0 -27 -25 -43
-42 -26 -8 8 -6 18 6 37 20 30 36 25 36 -11z m63 -52 c-21 -15 -37 -11 -41 11
-2 11 1 15 11 11 8 -3 18 0 22 6 6 9 10 9 16 -1 6 -9 3 -18 -8 -27z m-398 7
c39 -10 85 -51 85 -73 0 -28 -14 -56 -26 -56 -8 0 -14 -4 -14 -8 0 -21 -51
-32 -96 -22 -56 13 -68 6 -48 -25 11 -18 12 -25 3 -31 -7 -4 -9 -3 -6 2 3 6 2
16 -3 24 -7 11 -11 11 -24 1 -13 -11 -27 -11 -79 3 -74 20 -157 56 -157 68 0
26 23 47 61 53 33 6 43 3 55 -12 9 -10 13 -13 10 -6 -4 6 -2 14 4 18 5 3 10
12 10 18 0 8 -4 7 -9 -2 -8 -12 -12 -13 -26 -1 -12 10 -13 15 -3 21 7 4 9 11
5 15 -3 4 -13 1 -22 -6 -9 -7 -19 -10 -22 -6 -11 11 18 26 50 26 31 0 84 -30
68 -39 -5 -4 1 -11 15 -18 22 -10 24 -9 24 12 0 17 10 27 38 38 45 19 56 20
107 6z m-519 -83 c13 -4 26 -1 34 9 14 17 50 39 50 31 0 -2 -7 -12 -16 -20
-14 -15 -14 -16 5 -16 12 0 21 -4 21 -10 0 -5 -10 -8 -22 -6 -13 2 -41 -5 -63
-14 -34 -15 -42 -15 -53 -4 -20 22 -56 16 -82 -11 -22 -24 -25 -24 -31 -8 -7
16 -8 16 -8 -3 -1 -11 5 -28 12 -37 10 -15 16 -16 39 -5 16 7 28 16 28 21 0 4
7 7 16 7 25 0 -2 -28 -44 -46 -33 -13 -37 -13 -54 6 -23 25 -20 59 7 74 11 6
30 19 43 28 13 9 31 14 40 11 15 -6 15 -5 3 10 -12 15 -11 17 3 17 11 0 15 5
11 13 -4 6 4 0 17 -14 13 -15 32 -30 44 -33z m117 39 c-3 -9 -8 -14 -10 -11
-3 3 -2 9 2 15 9 16 15 13 8 -4z m82 5 c-3 -5 -12 -10 -20 -10 -8 0 -17 5 -20
10 -4 6 5 10 20 10 15 0 24 -4 20 -10z m661 -72 c-3 -13 -6 -29 -6 -35 0 -30
-17 -10 -18 22 -1 26 3 35 14 35 12 0 15 -6 10 -22z m-965 -21 c-10 -9 -11 -8
-5 6 3 10 9 15 12 12 3 -3 0 -11 -7 -18z m784 -41 c6 -1 19 -7 30 -13 20 -12
20 -12 1 -48 -16 -29 -17 -38 -7 -45 8 -4 10 -13 6 -19 -5 -9 -10 -9 -21 0
-11 9 -14 8 -14 -4 0 -20 -33 -39 -55 -31 -14 6 -14 8 2 27 18 20 18 20 -19
14 -41 -6 -60 8 -66 50 -2 18 3 26 18 30 11 3 20 10 20 16 0 5 8 16 18 24 15
12 29 12 87 -1z m-575 -6 c9 14 90 -4 90 -20 0 -16 2 -24 11 -47 5 -14 4 -34
-1 -48 -7 -20 -6 -25 5 -25 8 0 15 -4 15 -9 0 -6 -15 -5 -36 1 -20 5 -38 7
-42 4 -3 -3 2 -6 12 -6 26 0 9 -18 -32 -36 -20 -8 -47 -27 -59 -42 -16 -20
-22 -23 -23 -11 0 9 7 22 15 29 20 17 19 24 -7 35 -12 6 -33 25 -45 44 -21 31
-22 36 -8 51 8 9 15 24 15 33 0 9 11 19 25 23 13 3 30 13 37 21 9 11 13 12 16
3 3 -9 6 -9 12 0z m-151 -34 c9 -11 6 -18 -15 -35 -31 -25 -57 -27 -74 -6 -16
19 -4 35 25 35 13 0 27 5 30 10 9 14 20 12 34 -4z m316 -118 c6 -4 2 -8 -7 -8
-10 0 -18 7 -18 17 0 9 3 12 8 7 4 -5 12 -12 17 -16z m720 -48 c-3 -5 -16 -10
-28 -9 -21 0 -21 1 -2 9 28 12 37 12 30 0z m-775 -34 c0 -16 37 -28 46 -15 10
17 22 9 22 -16 0 -14 7 -34 16 -44 9 -9 15 -28 15 -42 -1 -18 -3 -19 -6 -6 -3
10 -11 16 -18 13 -7 -2 -16 2 -19 9 -7 20 -52 3 -48 -19 4 -23 -8 -20 -43 10
-25 21 -31 23 -33 10 -2 -9 -8 -16 -13 -16 -6 0 -7 -4 -4 -10 15 -25 -16 -7
-35 20 -22 30 -16 41 10 18 12 -11 12 -10 3 2 -6 8 -9 26 -8 40 2 14 4 29 4
34 1 4 7 6 15 3 9 -4 16 1 18 11 3 14 8 13 30 -9 30 -30 40 -27 31 9 -4 17 -2
23 6 18 6 -4 11 -13 11 -20z m-180 -26 c0 -5 -5 -10 -11 -10 -5 0 -7 5 -4 10
3 6 8 10 11 10 2 0 4 -4 4 -10z m287 -12 c-3 -8 -6 -5 -6 6 -1 11 2 17 5 13 3
-3 4 -12 1 -19z m213 12 c-8 -5 -28 -9 -45 -9 -26 0 -27 2 -10 9 11 5 31 9 45
9 20 1 22 -1 10 -9z m197 4 c-3 -3 -12 -4 -19 -1 -8 3 -5 6 6 6 11 1 17 -2 13
-5z m58 -14 c13 -5 14 -9 5 -9 -8 0 -24 4 -35 9 -13 5 -14 9 -5 9 8 0 24 -4
35 -9z m-445 -84 c0 -8 -4 -18 -10 -21 -5 -3 -10 3 -10 14 0 12 5 21 10 21 6
0 10 -6 10 -14z"/>
<path d="M740 1600 c0 -5 5 -10 10 -10 6 0 10 5 10 10 0 6 -4 10 -10 10 -5 0
-10 -4 -10 -10z"/>
<path d="M580 1470 c0 -5 4 -10 9 -10 6 0 13 5 16 10 3 6 -1 10 -9 10 -9 0
-16 -4 -16 -10z"/>
<path d="M1093 1338 c3 -9 1 -18 -5 -20 -8 -3 -6 -12 5 -28 11 -17 17 -20 18
-10 2 29 -3 55 -13 65 -8 7 -9 5 -5 -7z"/>
<path d="M1126 1334 c-4 -11 4 -19 29 -30 44 -18 54 -18 29 1 -10 8 -27 15
-36 15 -11 0 -15 5 -12 15 4 8 4 15 1 15 -3 0 -8 -7 -11 -16z"/>
<path d="M1068 1263 c7 -3 16 -2 19 1 4 3 -2 6 -13 5 -11 0 -14 -3 -6 -6z"/>
<path d="M1335 1250 c-3 -5 -1 -10 4 -10 6 0 11 5 11 10 0 6 -2 10 -4 10 -3 0
-8 -4 -11 -10z"/>
<path d="M1327 1223 c-7 -6 21 -30 38 -32 6 0 10 5 10 12 1 21 -33 36 -48 20z"/>
<path d="M1295 1180 c3 -5 8 -10 11 -10 2 0 4 5 4 10 0 6 -5 10 -11 10 -5 0
-7 -4 -4 -10z"/>
<path d="M835 990 c3 -5 8 -10 11 -10 2 0 4 5 4 10 0 6 -5 10 -11 10 -5 0 -7
-4 -4 -10z"/>
<path d="M850 960 c0 -5 5 -10 11 -10 5 0 7 5 4 10 -3 6 -8 10 -11 10 -2 0 -4
-4 -4 -10z"/>
</g>
</svg>
